<?xml version="1.0" encoding="UTF-8"?>
<!DOCTYPE svg PUBLIC "-//W3C//DTD SVG 1.1//EN" "http://www.w3.org/Graphics/SVG/1.1/DTD/svg11.dtd">
<!-- Creator: CorelDRAW X7 -->
<svg xmlns="http://www.w3.org/2000/svg" xml:space="preserve" width="3634px" height="1948px" version="1.1" style="shape-rendering:geometricPrecision; text-rendering:geometricPrecision; image-rendering:optimizeQuality; fill-rule:evenodd; clip-rule:evenodd"
viewBox="0 0 403058 216066"
 xmlns:xlink="http://www.w3.org/1999/xlink">
 <defs>
  <style type="text/css">
   <![CDATA[
    .str0 {stroke:#9E4D0A;stroke-width:3274.91}
    .fil0 {fill:none}
   ]]>
  </style>
 </defs>
 <g id="Layer_x0020_1">
  <metadata id="CorelCorpID_0Corel-Layer"/>
  <path class="fil0 str0" d="M285992 1638l15356 0 7679 13300 -7679 13299 -15356 0 -7679 -13299c0,0 7679,-13300 7679,-13300z"/>
  <path class="fil0 str0" d="M239921 1638l15357 0 7678 13300 -7678 13299 -15357 0 -7678 -13299c0,0 7678,-13300 7678,-13300z"/>
  <path class="fil0 str0" d="M262956 14938l15357 0 7679 13299 -7679 13299 -15357 0 -7678 -13299c0,0 7678,-13299 7678,-13299z"/>
  <path class="fil0 str0" d="M239921 28237l15357 0 7678 13299 -7678 13300 -15357 0 -7678 -13300c0,0 7678,-13299 7678,-13299z"/>
  <path class="fil0 str0" d="M285992 28237l15356 0 7679 13300 -7679 13299 -15356 0 -7679 -13300c0,0 7679,-13299 7679,-13299z"/>
  <path class="fil0 str0" d="M262956 41536l15357 0 7679 13300 -7679 13299 -15357 0 -7678 -13299c0,0 7678,-13300 7678,-13300z"/>
  <path class="fil0 str0" d="M285992 54836l15356 0 7679 13299 -7679 13300 -15356 0 -7679 -13300c0,0 7679,-13299 7679,-13299z"/>
  <path class="fil0 str0" d="M309027 41537l15357 0 7678 13299 -7678 13299 -15357 0 -7679 -13299c0,0 7679,-13299 7679,-13299z"/>
  <path class="fil0 str0" d="M239921 54836l15357 0 7678 13299 -7678 13300 -15357 0 -7678 -13300c0,0 7678,-13299 7678,-13299z"/>
  <path class="fil0 str0" d="M262956 68135l15357 0 7679 13300 -7679 13299 -15357 0 -7678 -13299c0,0 7678,-13300 7678,-13300z"/>
  <path class="fil0 str0" d="M239921 81435l15357 0 7678 13299 -7678 13299 -15357 0 -7678 -13299c0,0 7678,-13299 7678,-13299z"/>
  <path class="fil0 str0" d="M285992 81435l15356 0 7679 13299 -7679 13300 -15356 0 -7679 -13300c0,0 7679,-13299 7679,-13299z"/>
  <path class="fil0 str0" d="M262956 94734l15357 0 7679 13300 -7679 13299 -15357 0 -7678 -13300c0,0 7678,-13299 7678,-13299z"/>
  <path class="fil0 str0" d="M285992 108034l15356 0 7679 13299 -7679 13299 -15356 0 -7679 -13299c0,0 7679,-13299 7679,-13299z"/>
  <path class="fil0 str0" d="M309027 94734l15357 0 7678 13300 -7678 13299 -15357 0 -7679 -13299c0,0 7679,-13300 7679,-13300z"/>
  <path class="fil0 str0" d="M239921 108033l15357 0 7678 13300 -7678 13299 -15357 0 -7678 -13299c0,0 7678,-13300 7678,-13300z"/>
  <path class="fil0 str0" d="M262956 121333l15357 0 7679 13299 -7679 13300 -15357 0 -7678 -13300c0,0 7678,-13299 7678,-13299z"/>
  <path class="fil0 str0" d="M239921 134632l15357 0 7678 13300 -7678 13299 -15357 0 -7678 -13299c0,0 7678,-13300 7678,-13300z"/>
  <path class="fil0 str0" d="M285992 134633l15356 0 7679 13299 -7679 13299 -15356 0 -7679 -13299c0,0 7679,-13300 7679,-13299z"/>
  <path class="fil0 str0" d="M262956 147932l15357 0 7679 13299 -7679 13300 -15357 0 -7678 -13300c0,0 7678,-13299 7678,-13299z"/>
  <path class="fil0 str0" d="M285992 161231l15356 0 7679 13300 -7679 13299 -15356 0 -7679 -13299c0,0 7679,-13300 7679,-13300z"/>
  <path class="fil0 str0" d="M309027 147932l15357 0 7678 13300 -7678 13299 -15357 0 -7679 -13300c0,0 7679,-13299 7679,-13299z"/>
  <path class="fil0 str0" d="M239921 161231l15357 0 7678 13300 -7678 13299 -15357 0 -7678 -13299c0,0 7678,-13300 7678,-13300z"/>
  <path class="fil0 str0" d="M262956 174531l15357 0 7679 13299 -7679 13300 -15357 -1 -7678 -13299c0,0 7678,-13299 7678,-13299z"/>
  <path class="fil0 str0" d="M332062 1638l15357 0 7678 13300 -7678 13299 -15357 0 -7678 -13299c0,0 7678,-13300 7678,-13300z"/>
  <path class="fil0 str0" d="M378132 1639l15357 0 7679 13299 -7679 13299 -15357 0 -7678 -13299c0,0 7678,-13299 7678,-13299z"/>
  <path class="fil0 str0" d="M355097 14938l15357 0 7678 13299 -7678 13300 -15357 0 -7678 -13300c0,0 7678,-13299 7678,-13299z"/>
  <path class="fil0 str0" d="M378132 28237l15357 0 7679 13300 -7679 13299 -15357 0 -7678 -13299c0,0 7678,-13300 7678,-13300z"/>
  <path class="fil0 str0" d="M332062 28237l15357 0 7678 13300 -7678 13299 -15357 0 -7678 -13299c0,0 7678,-13300 7678,-13300z"/>
  <path class="fil0 str0" d="M309027 14938l15357 0 7678 13299 -7678 13300 -15357 0 -7679 -13300c0,0 7679,-13299 7679,-13299z"/>
  <path class="fil0 str0" d="M355097 41537l15357 0 7678 13299 -7678 13300 -15357 0 -7678 -13300c0,0 7678,-13299 7678,-13299z"/>
  <path class="fil0 str0" d="M332062 54836l15357 0 7678 13300 -7678 13299 -15357 0 -7678 -13299c0,0 7678,-13300 7678,-13300z"/>
  <path class="fil0 str0" d="M378132 54836l15357 0 7679 13300 -7679 13299 -15357 0 -7678 -13299c0,0 7678,-13300 7678,-13300z"/>
  <path class="fil0 str0" d="M355097 68136l15357 0 7678 13299 -7678 13299 -15357 0 -7678 -13299c0,0 7678,-13299 7678,-13299z"/>
  <path class="fil0 str0" d="M378132 81435l15357 0 7679 13300 -7679 13299 -15357 0 -7678 -13300c0,0 7678,-13299 7678,-13299z"/>
  <path class="fil0 str0" d="M332062 81435l15357 0 7678 13299 -7678 13300 -15357 0 -7678 -13300c0,0 7678,-13299 7678,-13299z"/>
  <path class="fil0 str0" d="M309027 68135l15357 1 7678 13299 -7678 13299 -15357 0 -7679 -13299c0,0 7679,-13300 7679,-13300z"/>
  <path class="fil0 str0" d="M355097 94734l15357 0 7678 13300 -7678 13299 -15357 0 -7678 -13299c0,0 7678,-13300 7678,-13300z"/>
  <path class="fil0 str0" d="M332062 108034l15357 0 7678 13299 -7678 13300 -15357 0 -7678 -13300c0,0 7678,-13299 7678,-13299z"/>
  <path class="fil0 str0" d="M378132 108034l15357 0 7679 13299 -7679 13300 -15357 0 -7678 -13300c0,0 7678,-13299 7678,-13299z"/>
  <path class="fil0 str0" d="M355097 121333l15357 0 7678 13300 -7678 13299 -15357 0 -7678 -13299c0,0 7678,-13300 7678,-13300z"/>
  <path class="fil0 str0" d="M378132 134633l15357 0 7679 13299 -7679 13300 -15357 0 -7678 -13300c0,0 7678,-13299 7678,-13299z"/>
  <path class="fil0 str0" d="M332062 134633l15357 0 7678 13299 -7678 13300 -15357 0 -7678 -13300c0,0 7678,-13299 7678,-13299z"/>
  <path class="fil0 str0" d="M309027 121333l15357 0 7678 13300 -7678 13299 -15357 0 -7679 -13299c0,0 7679,-13300 7679,-13300z"/>
  <path class="fil0 str0" d="M355097 147932l15357 0 7678 13300 -7678 13299 -15357 0 -7678 -13299c0,0 7678,-13300 7678,-13300z"/>
  <path class="fil0 str0" d="M332062 161232l15357 0 7678 13299 -7678 13299 -15357 0 -7678 -13299c0,0 7678,-13299 7678,-13299z"/>
  <path class="fil0 str0" d="M378132 161232l15357 0 7679 13299 -7679 13299 -15357 0 -7678 -13299c0,0 7678,-13299 7678,-13299z"/>
  <path class="fil0 str0" d="M309027 174531l15357 0 7678 13299 -7678 13300 -15357 0 -7679 -13300c0,0 7679,-13299 7679,-13299z"/>
  <path class="fil0 str0" d="M355097 174531l15357 0 7678 13299 -7678 13300 -15357 0 -7678 -13300c0,0 7678,-13299 7678,-13299z"/>
  <path class="fil0 str0" d="M124745 14937l15357 0 7678 13300 -7678 13299 -15357 0 -7678 -13299c0,0 7678,-13300 7678,-13300z"/>
  <path class="fil0 str0" d="M78675 14937l15356 0 7679 13300 -7679 13299 -15356 0 -7679 -13300c0,0 7679,-13299 7679,-13299z"/>
  <path class="fil0 str0" d="M101710 28237l15357 0 7678 13299 -7678 13299 -15357 0 -7679 -13299c0,0 7679,-13299 7679,-13299z"/>
  <path class="fil0 str0" d="M78675 41536l15356 0 7679 13299 -7679 13300 -15356 0 -7679 -13300c0,0 7679,-13299 7679,-13299z"/>
  <path class="fil0 str0" d="M124745 41536l15357 0 7678 13299 -7678 13300 -15357 0 -7678 -13300c0,0 7678,-13299 7678,-13299z"/>
  <path class="fil0 str0" d="M101710 54835l15357 0 7678 13300 -7678 13299 -15357 0 -7679 -13299c0,0 7679,-13300 7679,-13300z"/>
  <path class="fil0 str0" d="M124745 68135l15357 0 7678 13299 -7678 13300 -15357 0 -7678 -13300c0,0 7678,-13299 7678,-13299z"/>
  <path class="fil0 str0" d="M147780 54836l15357 0 7678 13299 -7678 13299 -15357 0 -7678 -13299c0,0 7678,-13300 7678,-13299z"/>
  <path class="fil0 str0" d="M78675 68135l15356 0 7679 13299 -7679 13300 -15356 0 -7679 -13300c0,0 7679,-13299 7679,-13299z"/>
  <path class="fil0 str0" d="M101710 81434l15357 0 7678 13300 -7678 13299 -15357 0 -7679 -13299c0,0 7679,-13300 7679,-13300z"/>
  <path class="fil0 str0" d="M78675 94734l15356 0 7679 13299 -7679 13299 -15356 0 -7679 -13299c0,0 7679,-13299 7679,-13299z"/>
  <path class="fil0 str0" d="M124745 94734l15357 0 7678 13299 -7678 13300 -15357 0 -7678 -13300c0,0 7678,-13299 7678,-13299z"/>
  <path class="fil0 str0" d="M101710 108033l15357 0 7678 13300 -7678 13299 -15357 0 -7679 -13299c0,0 7679,-13300 7679,-13300z"/>
  <path class="fil0 str0" d="M124745 121333l15357 0 7678 13299 -7678 13299 -15357 0 -7678 -13299c0,0 7678,-13299 7678,-13299z"/>
  <path class="fil0 str0" d="M147780 108033l15357 0 7678 13300 -7678 13299 -15357 0 -7678 -13299c0,0 7678,-13300 7678,-13300z"/>
  <path class="fil0 str0" d="M78675 121333l15356 0 7679 13299 -7679 13299 -15356 0 -7679 -13299c0,0 7679,-13300 7679,-13299z"/>
  <path class="fil0 str0" d="M101710 134632l15357 0 7678 13299 -7678 13300 -15357 0 -7679 -13300c0,0 7679,-13299 7679,-13299z"/>
  <path class="fil0 str0" d="M78675 147931l15356 0 7679 13300 -7679 13299 -15356 0 -7679 -13299c0,0 7679,-13300 7679,-13300z"/>
  <path class="fil0 str0" d="M124745 147931l15357 0 7678 13300 -7678 13299 -15357 0 -7678 -13299c0,0 7678,-13300 7678,-13300z"/>
  <path class="fil0 str0" d="M101710 161231l15357 0 7678 13299 -7678 13300 -15357 0 -7679 -13300c0,0 7679,-13299 7679,-13299z"/>
  <path class="fil0 str0" d="M124745 174530l15357 0 7678 13300 -7678 13299 -15357 0 -7678 -13299c0,0 7678,-13300 7678,-13300z"/>
  <path class="fil0 str0" d="M147780 161231l15357 0 7678 13299 -7678 13300 -15357 0 -7678 -13300c0,0 7678,-13299 7678,-13299z"/>
  <path class="fil0 str0" d="M78675 174530l15356 0 7679 13300 -7679 13299 -15356 0 -7679 -13299c0,0 7679,-13300 7679,-13300z"/>
  <path class="fil0 str0" d="M101710 187830l15357 0 7678 13299 -7678 13299 -15357 0 -7679 -13299c0,0 7679,-13299 7679,-13299z"/>
  <path class="fil0 str0" d="M170815 14937l15357 0 7679 13300 -7679 13299 -15357 0 -7678 -13299c0,0 7678,-13300 7678,-13300z"/>
  <path class="fil0 str0" d="M216886 14938l15357 0 7678 13299 -7678 13299 -15357 0 -7679 -13299c0,0 7679,-13299 7679,-13299z"/>
  <path class="fil0 str0" d="M193851 28237l15356 0 7679 13299 -7679 13300 -15356 0 -7679 -13300c0,0 7679,-13299 7679,-13299z"/>
  <path class="fil0 str0" d="M216886 41536l15357 0 7678 13300 -7678 13299 -15357 0 -7679 -13299c0,0 7679,-13300 7679,-13300z"/>
  <path class="fil0 str0" d="M170815 41536l15357 0 7679 13300 -7679 13299 -15357 0 -7678 -13299c0,0 7678,-13300 7678,-13300z"/>
  <path class="fil0 str0" d="M147780 28237l15357 0 7678 13299 -7678 13299 -15357 0 -7678 -13299c0,0 7678,-13299 7678,-13299z"/>
  <path class="fil0 str0" d="M193851 54836l15356 0 7679 13299 -7679 13300 -15356 0 -7679 -13300c0,0 7679,-13299 7679,-13299z"/>
  <path class="fil0 str0" d="M170815 68135l15357 0 7679 13300 -7679 13299 -15357 0 -7678 -13300c0,0 7678,-13299 7678,-13299z"/>
  <path class="fil0 str0" d="M216886 68135l15357 0 7678 13300 -7678 13299 -15357 0 -7679 -13299c0,0 7679,-13300 7679,-13300z"/>
  <path class="fil0 str0" d="M193851 81435l15356 0 7679 13299 -7679 13299 -15356 0 -7679 -13299c0,0 7679,-13299 7679,-13299z"/>
  <path class="fil0 str0" d="M216886 94734l15357 0 7678 13299 -7678 13300 -15357 0 -7679 -13300c0,0 7679,-13299 7679,-13299z"/>
  <path class="fil0 str0" d="M170815 94734l15357 0 7679 13299 -7679 13300 -15357 0 -7678 -13300c0,0 7678,-13299 7678,-13299z"/>
  <path class="fil0 str0" d="M147780 81434l15357 0 7678 13300 -7678 13299 -15357 0 -7678 -13299c0,0 7678,-13300 7678,-13300z"/>
  <path class="fil0 str0" d="M193851 108033l15356 0 7679 13300 -7679 13299 -15356 0 -7679 -13299c0,0 7679,-13300 7679,-13300z"/>
  <path class="fil0 str0" d="M170815 121333l15357 0 7679 13299 -7679 13300 -15357 0 -7678 -13300c0,0 7678,-13299 7678,-13299z"/>
  <path class="fil0 str0" d="M216886 121333l15357 0 7678 13299 -7678 13300 -15357 0 -7679 -13300c0,0 7679,-13299 7679,-13299z"/>
  <path class="fil0 str0" d="M193851 134632l15356 0 7679 13300 -7679 13299 -15356 0 -7679 -13299c0,0 7679,-13300 7679,-13300z"/>
  <path class="fil0 str0" d="M216886 147932l15357 0 7678 13299 -7678 13300 -15357 0 -7679 -13300c0,0 7679,-13299 7679,-13299z"/>
  <path class="fil0 str0" d="M170815 147932l15357 0 7679 13299 -7679 13299 -15357 0 -7678 -13299c0,0 7678,-13299 7678,-13299z"/>
  <path class="fil0 str0" d="M147780 134632l15357 0 7678 13300 -7678 13299 -15357 0 -7678 -13300c0,0 7678,-13299 7678,-13299z"/>
  <path class="fil0 str0" d="M193851 161231l15356 0 7679 13300 -7679 13299 -15356 0 -7679 -13299c0,0 7679,-13300 7679,-13300z"/>
  <path class="fil0 str0" d="M170815 174531l15357 0 7679 13299 -7679 13299 -15357 0 -7678 -13299c0,0 7678,-13300 7678,-13299z"/>
  <path class="fil0 str0" d="M216886 174531l15357 0 7678 13299 -7678 13299 -15357 0 -7679 -13299c0,0 7679,-13299 7679,-13299z"/>
  <path class="fil0 str0" d="M147780 187830l15357 0 7678 13299 -7678 13300 -15357 0 -7678 -13300c0,0 7678,-13299 7678,-13299z"/>
  <path class="fil0 str0" d="M193851 187830l15356 0 7679 13299 -7679 13300 -15356 0 -7679 -13300c0,0 7679,-13299 7679,-13299z"/>
  <path class="fil0 str0" d="M101710 1638l15357 0 7678 13299 -7678 13300 -15357 0 -7678 -13300c0,0 7678,-13299 7678,-13299z"/>
  <path class="fil0 str0" d="M55640 1638l15356 0 7679 13299 -7679 13299 -15357 0 -7678 -13299c0,0 7679,-13299 7679,-13299z"/>
  <path class="fil0 str0" d="M147780 1638l15357 0 7679 13299 -7679 13300 -15357 0 -7678 -13300c0,0 7678,-13299 7678,-13299z"/>
  <path class="fil0 str0" d="M193851 1638l15357 0 7678 13300 -7678 13299 -15357 0 -7679 -13300c0,0 7679,-13299 7679,-13299z"/>
  <path class="fil0 str0" d="M9569 1637l15357 0 7678 13300 -7678 13299 -15357 0 -7678 -13299c0,0 7678,-13300 7678,-13300z"/>
  <path class="fil0 str0" d="M32604 14937l15357 0 7679 13299 -7679 13300 -15357 0 -7678 -13300c0,0 7678,-13299 7678,-13299z"/>
  <path class="fil0 str0" d="M55640 28236l15356 0 7679 13300 -7679 13299 -15357 0 -7678 -13299c0,0 7679,-13300 7679,-13300z"/>
  <path class="fil0 str0" d="M9569 28236l15357 0 7678 13300 -7678 13299 -15357 0 -7678 -13299c0,0 7678,-13300 7678,-13300z"/>
  <path class="fil0 str0" d="M32604 41536l15357 0 7679 13299 -7679 13300 -15357 0 -7678 -13300c0,0 7678,-13299 7678,-13299z"/>
  <path class="fil0 str0" d="M9569 54835l15357 0 7678 13300 -7678 13299 -15357 0 -7678 -13300c0,0 7678,-13299 7678,-13299z"/>
  <path class="fil0 str0" d="M55640 54835l15356 0 7679 13300 -7679 13299 -15357 0 -7678 -13299c0,0 7679,-13300 7679,-13300z"/>
  <path class="fil0 str0" d="M32604 68135l15357 0 7679 13299 -7679 13299 -15357 0 -7678 -13299c0,0 7678,-13299 7678,-13299z"/>
  <path class="fil0 str0" d="M55640 81434l15356 0 7679 13300 -7679 13299 -15357 0 -7678 -13299c0,0 7679,-13300 7679,-13300z"/>
  <path class="fil0 str0" d="M9569 81434l15357 0 7678 13299 -7678 13300 -15357 0 -7678 -13300c0,0 7678,-13299 7678,-13299z"/>
  <path class="fil0 str0" d="M32604 94733l15357 1 7679 13299 -7679 13299 -15357 0 -7678 -13299c0,0 7678,-13300 7678,-13300z"/>
  <path class="fil0 str0" d="M9569 108033l15357 0 7678 13299 -7678 13300 -15357 0 -7678 -13300c0,0 7678,-13299 7678,-13299z"/>
  <path class="fil0 str0" d="M55640 108033l15356 0 7679 13299 -7679 13300 -15357 0 -7678 -13300c0,0 7679,-13299 7679,-13299z"/>
  <path class="fil0 str0" d="M32604 121332l15357 0 7679 13300 -7679 13299 -15357 0 -7678 -13299c0,0 7678,-13300 7678,-13300z"/>
  <path class="fil0 str0" d="M55640 134632l15356 0 7679 13299 -7679 13300 -15357 0 -7678 -13300c0,0 7679,-13299 7679,-13299z"/>
  <path class="fil0 str0" d="M9569 134632l15357 0 7678 13299 -7678 13299 -15357 0 -7678 -13299c0,0 7678,-13299 7678,-13299z"/>
  <path class="fil0 str0" d="M32604 147931l15357 0 7679 13300 -7679 13299 -15357 0 -7678 -13299c0,0 7678,-13300 7678,-13300z"/>
  <path class="fil0 str0" d="M9569 161231l15357 0 7678 13299 -7678 13299 -15357 0 -7678 -13299c0,0 7678,-13300 7678,-13299z"/>
  <path class="fil0 str0" d="M55640 161231l15356 0 7679 13299 -7679 13300 -15357 0 -7678 -13300c0,0 7679,-13299 7679,-13299z"/>
  <path class="fil0 str0" d="M32604 174530l15357 0 7679 13300 -7679 13299 -15357 0 -7678 -13300c0,0 7678,-13299 7678,-13299z"/>
 </g>
</svg>
